<?xml version="1.0" encoding="UTF-8"?>
<svg xmlns="http://www.w3.org/2000/svg" xmlns:xlink="http://www.w3.org/1999/xlink" width="960px" height="960px" viewBox="0 0 960 960" version="1.1">
<g id="surface1">
<path style=" stroke:none;fill-rule:nonzero;fill:rgb(4.313726%,26.666668%,17.647059%);fill-opacity:1;" d="M 911.019531 851.074219 C 878.429688 880.140625 837.570312 900.34375 793.210938 916.601562 C 738.707031 936.574219 681.246094 948.445312 621.621094 954.585938 C 556.695312 961.273438 491.710938 961.785156 426.730469 955.984375 C 327.402344 947.121094 234.640625 923.121094 150.011719 881.226562 C 109.714844 861.273438 73.796875 837.378906 47.574219 805.988281 C 0.386719 749.480469 -12.449219 688.589844 13.988281 623.9375 C 28.488281 588.507812 58.027344 560.765625 94.113281 537.058594 C 133.367188 511.289062 177.964844 492.441406 225.164062 477.289062 C 249.433594 469.496094 274.441406 463.105469 299.113281 456.074219 C 302.289062 455.175781 305.464844 454.269531 310.476562 452.851562 C 304.269531 450.847656 299.875 449.316406 295.371094 447.980469 C 247.679688 433.808594 202.140625 416.484375 161.574219 392.027344 C 124.976562 369.957031 93.847656 343.914062 78.289062 309.570312 C 43.941406 233.714844 61.9375 165.195312 131.972656 105.914062 C 170.40625 73.382812 219.039062 52.085938 271.007812 35.378906 C 324.519531 18.179688 380.429688 8.480469 437.949219 3.671875 C 500.355469 -1.542969 562.710938 -1.105469 624.945312 4.328125 C 692.382812 10.222656 757.390625 22.820312 816.503906 50.082031 C 839.660156 60.753906 861.289062 72.914062 879.207031 88.703125 C 902.578125 109.324219 916.113281 132.988281 913.632812 160.90625 C 910.550781 195.417969 886.65625 219.480469 847.136719 233.175781 C 808.824219 246.449219 772.144531 242.027344 739.726562 220.648438 C 718.203125 206.441406 703.570312 188.210938 691.484375 168.675781 C 680.628906 151.136719 669.183594 133.894531 654.027344 118.300781 C 628.015625 91.539062 595.746094 71.253906 553.558594 62.472656 C 445.398438 39.957031 310.664062 78.941406 276.730469 188.285156 C 264.09375 229.023438 264.054688 270.210938 275.820312 311.167969 C 293.457031 372.574219 342.757812 409.953125 420.699219 424.671875 C 469.011719 433.785156 517.84375 433.640625 566.917969 428.15625 C 601.359375 424.304688 635.988281 421.011719 670.886719 422.910156 C 682.304688 423.523438 693.949219 425.253906 704.789062 428.082031 C 720.683594 432.234375 731.230469 440.628906 732.074219 454.71875 C 732.972656 469.808594 725.359375 480.960938 707.792969 487.71875 C 692.207031 493.714844 675.253906 495.707031 658.355469 495.195312 C 634.78125 494.476562 611.171875 492.828125 587.824219 490.273438 C 550.289062 486.164062 513.007812 480.742188 474.773438 483.234375 C 444.890625 485.171875 415.554688 488.84375 387.304688 497.042969 C 330.335938 513.574219 290.144531 543.746094 270.808594 588.476562 C 241.929688 655.238281 241.847656 722.65625 276.035156 788.183594 C 311.882812 856.871094 379.894531 893.5 474.707031 900.425781 C 503.386719 902.523438 531.808594 902.09375 559.882812 897.253906 C 607.324219 889.070312 644.621094 868.960938 672.039062 837.765625 C 687.785156 819.835938 698.53125 800.105469 707.324219 779.589844 C 713.097656 766.113281 719.144531 752.671875 725.949219 739.488281 C 730.585938 730.496094 736.644531 721.945312 742.234375 713.269531 C 778.214844 657.40625 883.253906 647.917969 938.695312 702.796875 C 951.492188 715.457031 958.339844 729.882812 959.332031 745.984375 C 961.796875 786.179688 944.738281 820.996094 911.019531 851.074219 Z M 911.019531 851.074219 "/>
</g>
</svg>
