<?xml version="1.0" encoding="UTF-8"?>
<svg id="Calque_2" data-name="Calque 2" xmlns="http://www.w3.org/2000/svg" viewBox="0 0 485.19 181.87">
  <defs>
    <style>
      .cls-1 {
        fill: #ec681c;
      }

      .cls-2 {
        fill: #fff;
      }

      .cls-3 {
        fill: #fab73c;
      }

      .cls-4 {
        fill: #0b442d;
      }

      .cls-5 {
        fill: #1d1d1b;
        font-family: AmpleSoftPro-Light, 'AmpleSoft Pro';
        font-size: 29.8px;
        font-weight: 300;
      }
    </style>
  </defs>
  <g id="Calque_1-2" data-name="Calque 1">
    <g>
      <path class="cls-3" d="m90.84,142.25v-67.02c0-10.94,3.19-19.27,9.58-25,6.39-5.73,15.36-8.59,26.92-8.59,24.44,0,36.65,11.2,36.65,33.59v12.27c0,11.15-2.76,19.68-8.28,25.61-5.52,5.93-13.5,8.9-23.92,8.9-9.71,0-16.72-2.91-21.01-8.74v28.99c0,3.47-.56,5.77-1.69,6.9-1.13,1.12-3.43,1.69-6.9,1.69h-2.76c-3.48,0-5.78-.56-6.9-1.69s-1.69-3.43-1.69-6.9Zm53.06-54.29v-12.27c0-5.73-1.15-9.69-3.45-11.89-2.3-2.2-6.62-3.3-12.96-3.3s-10.58,1.15-13.04,3.45-3.68,6.21-3.68,11.73v12.27c0,5.52,1.23,9.43,3.68,11.73,2.45,2.3,6.8,3.45,13.04,3.45s10.53-1.12,12.88-3.37c2.35-2.25,3.53-6.19,3.53-11.81Z"/>
      <path class="cls-3" d="m175.19,109.89v-1.69c0-3.68.59-6.03,1.76-7.05,1.17-1.02,3.4-1.07,6.67-.15,5.52,1.64,12.47,2.45,20.86,2.45,4.6,0,7.72-.31,9.35-.92,1.63-.61,2.45-1.79,2.45-3.53,0-1.33-.61-2.43-1.84-3.3-1.23-.87-3.83-2.12-7.82-3.76l-14.26-5.98c-5.73-2.45-9.81-5.29-12.27-8.51-2.45-3.22-3.68-7.64-3.68-13.27,0-7.77,2.48-13.47,7.44-17.1,4.96-3.63,12.91-5.44,23.85-5.44,5.93,0,11.35.61,16.26,1.84,3.47.82,5.75,1.87,6.82,3.14,1.07,1.28,1.61,3.6,1.61,6.98v1.53c0,3.48-.59,5.7-1.76,6.67-1.18.97-3.45,1.05-6.82.23-5.01-1.23-10.48-1.84-16.41-1.84-4.29,0-7.26.31-8.9.92-1.64.61-2.45,1.69-2.45,3.22,0,1.13.41,2.02,1.23,2.68.82.67,2.5,1.51,5.06,2.53l15.95,6.29c6.23,2.45,10.73,5.44,13.5,8.97,2.76,3.53,4.14,8.2,4.14,14.03,0,8.08-2.61,13.96-7.82,17.64s-13.6,5.52-25.15,5.52c-7.87,0-14.32-.67-19.32-1.99-3.48-.82-5.75-1.86-6.82-3.14-1.07-1.28-1.61-3.6-1.61-6.98Z"/>
      <path class="cls-3" d="m269.04,45.17c-1.12-1.13-3.42-1.69-6.9-1.69h-2.76c-3.48,0-5.78.56-6.9,1.69-1.13,1.12-1.69,3.43-1.69,6.9v59.5c0,3.48.56,5.78,1.69,6.91s3.42,1.68,6.9,1.68h2.76c3.48,0,5.78-.56,6.9-1.68,1.13-1.13,1.69-3.43,1.69-6.91v-59.5c0-3.47-.56-5.78-1.69-6.9Z"/>
      <path class="cls-1" d="m276.62,20.88v1.67c0,2.1-.24,3.49-.7,4.16-.47.68-1.42,1.02-2.86,1.02h-6.28v6.29c0,1.43-.34,2.39-1.02,2.85-.68.47-2.07.7-4.17.7h-1.66c-2.1,0-3.49-.23-4.16-.7-.69-.46-1.02-1.42-1.02-2.85v-6.29h-6.29c-1.44,0-2.39-.34-2.86-1.02-.46-.67-.69-2.06-.69-4.16v-1.67c0-2.1.23-3.49.69-4.16.47-.68,1.42-1.02,2.86-1.02h6.29v-6.29c0-1.43.33-2.39,1.02-2.85.67-.47,2.06-.7,4.16-.7h1.66c2.1,0,3.49.23,4.17.7.68.46,1.02,1.42,1.02,2.85v6.29h6.28c1.44,0,2.39.34,2.86,1.02.46.67.7,2.06.7,4.16Z"/>
      <path class="cls-3" d="m287.29,97.01V21.4c0-3.47.56-5.77,1.69-6.9s3.42-1.69,6.9-1.69h2.76c3.47,0,5.78.56,6.9,1.69,1.12,1.13,1.69,3.43,1.69,6.9v71.16c0,3.89.51,6.57,1.53,8.05,1.02,1.48,2.76,2.22,5.21,2.22h.77c2.15,0,3.55.44,4.22,1.3.66.87,1,2.79,1,5.75v2.91c0,3.07-.36,5.16-1.07,6.29-.72,1.12-2.1,1.89-4.14,2.3-1.84.2-3.37.31-4.6.31-7.26,0-12.88-2.09-16.87-6.29-3.99-4.19-5.98-10.33-5.98-18.4Z"/>
      <path class="cls-3" d="m364.43,120.53c-12.48,0-21.73-2.81-27.76-8.44-6.03-5.62-9.05-14.16-9.05-25.61v-12.27c0-10.94,3.14-19.35,9.43-25.23,6.29-5.88,15.41-8.82,27.38-8.82s21.67,2.81,27.6,8.44c5.93,5.62,8.9,14.16,8.9,25.61v12.27c0,11.04-3.09,19.48-9.28,25.3-6.19,5.83-15.26,8.74-27.22,8.74Zm16.41-34.05v-12.27c0-5.62-1.18-9.56-3.53-11.81-2.35-2.25-6.65-3.37-12.88-3.37s-10.58,1.15-13.04,3.45c-2.45,2.3-3.68,6.21-3.68,11.73v12.27c0,5.52,1.23,9.43,3.68,11.73,2.45,2.3,6.8,3.45,13.04,3.45s10.53-1.12,12.88-3.37c2.35-2.25,3.53-6.19,3.53-11.81Z"/>
      <text class="cls-5" transform="translate(0 174.9)"><tspan x="0" y="0">Trouvez un prof adapté à votre enfant</tspan></text>
      <path class="cls-3" d="m104.53,111.74c-1.17,3.76-3.41,6.86-6.26,9.53-3.7,3.47-8.03,5.96-12.66,7.95-6.68,2.87-13.68,4.38-20.9,4.97-5.25.43-10.51.44-15.75-.06-11.51-1.1-22.25-4.54-32.02-10.81-4.26-2.74-8.05-6.01-10.84-10.27-5.28-8.05-6.64-16.72-3.62-25.92,1.58-4.8,4.73-8.57,8.54-11.8,4.38-3.72,9.38-6.41,14.67-8.58,2.47-1.01,5.02-1.84,7.53-2.76.39-.15.79-.3,1.22-.46-3.38-1.59-6.66-3.05-9.87-4.66-2.83-1.42-5.39-3.28-7.81-5.34-12.69-10.73-10.9-27.98-2.81-37.32,3.87-4.47,8.65-7.66,13.93-10.16,6.08-2.87,12.5-4.53,19.16-5.37,6.79-.85,13.59-.87,20.39-.24,7.91.73,15.55,2.47,22.49,6.59,2.48,1.47,4.8,3.14,6.73,5.3,2.06,2.31,3.41,4.94,3.8,8.05.75,5.88-3.46,11.8-9.29,13.02-3.64.76-6.84-.1-9.65-2.49-1.92-1.64-3.34-3.67-4.52-5.87-.74-1.37-1.38-2.79-2.11-4.17-1.77-3.34-3.97-6.35-6.97-8.7-3.36-2.64-7.19-4.02-11.45-4.21-4.34-.19-8.55.37-12.5,2.27-6.57,3.16-10.82,8.31-12.72,15.32-1.64,6.08-1.68,12.23-.25,18.35,2.07,8.79,7.77,13.89,16.47,15.77,4.8,1.04,9.63,1.12,14.51.41,2.93-.43,5.89-.67,8.85-.89,2.39-.18,4.78-.07,7.05.83,2.45.98,3.43,3.22,2.58,5.72-.44,1.27-1.32,2.21-2.55,2.64-1.27.45-2.62.79-3.95.92-3.32.3-6.6-.21-9.88-.7-3.12-.47-6.23-1.13-9.41-.99-3.86.16-7.65.62-11.31,1.94-6.46,2.33-10.82,6.74-13.11,13.18-1.87,5.27-2.26,10.74-1.91,16.27.28,4.46,1.2,8.77,3.17,12.81,4.05,8.29,10.66,13.05,19.83,14.21,3.4.43,6.79.47,10.16-.21,3.1-.63,5.31-1.9,6.84-2.71,2.48-1.33,4.08-2.59,6.98-4.9,1.51-1.21,2.32-1.91,6.99-6.05,6.49-5.74,7.28-6.46,8.5-8.13.13-.18-.04.05,3.59-6.24,1.29-2.23,1.95-3.37,1.49-4.1-.58-.91-2.7-.82-2.86-.33-.35,1.09,10.41,2.24,12.12,9.03.8,3.17.34,6.29-.62,9.35Z"/>
      <path class="cls-3" d="m429.37,72.07v38.95c0,3.48-.56,5.78-1.69,6.9-1.13,1.13-3.43,1.69-6.9,1.69h-2.91c-3.48,0-5.78-.56-6.9-1.69-1.13-1.12-1.69-3.42-1.69-6.9v-38.95c0-10.12,2.94-17.81,8.82-23.08,5.88-5.26,14.59-7.9,26.15-7.9s20.6,2.53,26.23,7.59c5.62,5.06,8.43,12.86,8.43,23.39v38.95c0,3.48-.56,5.78-1.69,6.9s-3.43,1.69-6.9,1.69h-2.91c-3.48,0-5.78-.56-6.9-1.69-1.13-1.12-1.69-3.42-1.69-6.9v-38.95c0-4.6-1.02-7.77-3.07-9.51-2.05-1.74-5.88-2.61-11.5-2.61s-9.51.9-11.66,2.68c-2.15,1.79-3.22,4.93-3.22,9.43Z"/>
      <ellipse class="cls-3" cx="128.79" cy="83.05" rx="23.24" ry="28.91"/>
      <circle class="cls-4" cx="129.12" cy="81.34" r="26.83"/>
      <rect class="cls-4" x="101.96" y="90.45" width="7.18" height="28.91" rx="3.59" ry="3.59" transform="translate(105.1 -43.91) rotate(45)"/>
      <path class="cls-2" d="m120,60.51c.53.02,1.07,0,1.59.07.75.11,1.66.99,1.59,2.12-.06.97-.78,1.84-1.72,1.95-1.13.13-2.23.38-3.29.77-1.7.63-3.24,1.53-4.61,2.72-2.32,2.01-3.98,4.46-4.94,7.38-.05.14-.06.3-.14.41-.08.11-.21.24-.34.26-.37.07-.5-.05-.55-.48-.12-1.11-.08-2.22.1-3.33.3-1.82.9-3.54,1.88-5.1.95-1.52,2.12-2.85,3.56-3.94,1.11-.84,2.31-1.5,3.61-1.99,1.06-.39,2.15-.65,3.27-.85Z"/>
    </g>
  </g>
</svg>